<mxfile host="app.diagrams.net" agent="Mozilla/5.0 (X11; Linux x86_64) AppleWebKit/537.36 (KHTML, like Gecko) Chrome/131.0.0.0 Safari/537.36" version="24.9.2">
  <diagram name="Página-1" id="0uC4-NYdUZBlsJQjvB9X">
    <mxGraphModel dx="1247" dy="645" grid="1" gridSize="10" guides="1" tooltips="1" connect="1" arrows="1" fold="1" page="1" pageScale="1" pageWidth="1200" pageHeight="1000" math="0" shadow="0">
      <root>
        <mxCell id="0" />
        <mxCell id="1" parent="0" />
        <mxCell id="mPvs-Qs_zoCZcgiNi18o-2" style="edgeStyle=orthogonalEdgeStyle;rounded=0;orthogonalLoop=1;jettySize=auto;html=1;" edge="1" parent="1" source="mPvs-Qs_zoCZcgiNi18o-1" target="mPvs-Qs_zoCZcgiNi18o-3">
          <mxGeometry relative="1" as="geometry">
            <mxPoint x="455" y="295" as="targetPoint" />
          </mxGeometry>
        </mxCell>
        <mxCell id="mPvs-Qs_zoCZcgiNi18o-5" style="edgeStyle=orthogonalEdgeStyle;rounded=0;orthogonalLoop=1;jettySize=auto;html=1;" edge="1" parent="1" source="mPvs-Qs_zoCZcgiNi18o-1" target="mPvs-Qs_zoCZcgiNi18o-4">
          <mxGeometry relative="1" as="geometry" />
        </mxCell>
        <mxCell id="mPvs-Qs_zoCZcgiNi18o-7" style="edgeStyle=orthogonalEdgeStyle;rounded=0;orthogonalLoop=1;jettySize=auto;html=1;" edge="1" parent="1" source="mPvs-Qs_zoCZcgiNi18o-1" target="mPvs-Qs_zoCZcgiNi18o-6">
          <mxGeometry relative="1" as="geometry" />
        </mxCell>
        <mxCell id="mPvs-Qs_zoCZcgiNi18o-26" style="edgeStyle=orthogonalEdgeStyle;rounded=0;orthogonalLoop=1;jettySize=auto;html=1;entryX=0.5;entryY=1;entryDx=0;entryDy=0;" edge="1" parent="1" source="mPvs-Qs_zoCZcgiNi18o-1" target="mPvs-Qs_zoCZcgiNi18o-18">
          <mxGeometry relative="1" as="geometry" />
        </mxCell>
        <mxCell id="mPvs-Qs_zoCZcgiNi18o-1" value="Cliente" style="text;html=1;align=center;verticalAlign=middle;resizable=0;points=[];autosize=1;strokeColor=none;fillColor=none;" vertex="1" parent="1">
          <mxGeometry x="565" y="280" width="60" height="30" as="geometry" />
        </mxCell>
        <mxCell id="mPvs-Qs_zoCZcgiNi18o-15" value="" style="rounded=0;whiteSpace=wrap;html=1;" vertex="1" parent="1">
          <mxGeometry x="105" y="170" width="310" height="280" as="geometry" />
        </mxCell>
        <mxCell id="mPvs-Qs_zoCZcgiNi18o-3" value="Patrocinador" style="text;html=1;align=center;verticalAlign=middle;resizable=0;points=[];autosize=1;strokeColor=none;fillColor=none;" vertex="1" parent="1">
          <mxGeometry x="325" y="280" width="90" height="30" as="geometry" />
        </mxCell>
        <mxCell id="mPvs-Qs_zoCZcgiNi18o-18" value="" style="rounded=0;whiteSpace=wrap;html=1;" vertex="1" parent="1">
          <mxGeometry x="430" y="60" width="330" height="140" as="geometry" />
        </mxCell>
        <mxCell id="mPvs-Qs_zoCZcgiNi18o-8" value="" style="rounded=0;whiteSpace=wrap;html=1;" vertex="1" parent="1">
          <mxGeometry x="415" y="470" width="360" height="250" as="geometry" />
        </mxCell>
        <mxCell id="mPvs-Qs_zoCZcgiNi18o-4" value="Comprador" style="text;html=1;align=center;verticalAlign=middle;resizable=0;points=[];autosize=1;strokeColor=none;fillColor=none;" vertex="1" parent="1">
          <mxGeometry x="555" y="470" width="80" height="30" as="geometry" />
        </mxCell>
        <mxCell id="mPvs-Qs_zoCZcgiNi18o-9" value="Comprar juegos de la empresa" style="rounded=0;whiteSpace=wrap;html=1;" vertex="1" parent="1">
          <mxGeometry x="425" y="550" width="120" height="40" as="geometry" />
        </mxCell>
        <mxCell id="mPvs-Qs_zoCZcgiNi18o-10" value="Ver los juegos de la empresa" style="rounded=0;whiteSpace=wrap;html=1;" vertex="1" parent="1">
          <mxGeometry x="635" y="150" width="120" height="40" as="geometry" />
        </mxCell>
        <mxCell id="mPvs-Qs_zoCZcgiNi18o-11" value="Ver tus juegos comprados de la empresa" style="rounded=0;whiteSpace=wrap;html=1;" vertex="1" parent="1">
          <mxGeometry x="645" y="545" width="120" height="50" as="geometry" />
        </mxCell>
        <mxCell id="mPvs-Qs_zoCZcgiNi18o-13" value="Ver tu cesta de compra" style="rounded=0;whiteSpace=wrap;html=1;" vertex="1" parent="1">
          <mxGeometry x="535" y="620" width="120" height="50" as="geometry" />
        </mxCell>
        <mxCell id="mPvs-Qs_zoCZcgiNi18o-27" value="Modificar la contraseña" style="rounded=0;whiteSpace=wrap;html=1;" vertex="1" parent="1">
          <mxGeometry x="435" y="150" width="120" height="40" as="geometry" />
        </mxCell>
        <mxCell id="mPvs-Qs_zoCZcgiNi18o-28" value="Ver tu perfil" style="rounded=0;whiteSpace=wrap;html=1;" vertex="1" parent="1">
          <mxGeometry x="435" y="80" width="120" height="40" as="geometry" />
        </mxCell>
        <mxCell id="mPvs-Qs_zoCZcgiNi18o-29" value="Modificar tu foto de perfil *" style="rounded=0;whiteSpace=wrap;html=1;" vertex="1" parent="1">
          <mxGeometry x="635" y="80" width="120" height="40" as="geometry" />
        </mxCell>
        <mxCell id="mPvs-Qs_zoCZcgiNi18o-30" value="" style="rounded=0;whiteSpace=wrap;html=1;" vertex="1" parent="1">
          <mxGeometry x="785" y="180" width="310" height="280" as="geometry" />
        </mxCell>
        <mxCell id="mPvs-Qs_zoCZcgiNi18o-6" value="Inversor" style="text;html=1;align=center;verticalAlign=middle;resizable=0;points=[];autosize=1;strokeColor=none;fillColor=none;" vertex="1" parent="1">
          <mxGeometry x="775" y="280" width="70" height="30" as="geometry" />
        </mxCell>
        <mxCell id="mPvs-Qs_zoCZcgiNi18o-31" value="Tener acceso a contenido multimedia de los juegos de la empresa cuando estes aceptado" style="rounded=0;whiteSpace=wrap;html=1;" vertex="1" parent="1">
          <mxGeometry x="120" y="180" width="160" height="70" as="geometry" />
        </mxCell>
        <mxCell id="mPvs-Qs_zoCZcgiNi18o-36" style="rounded=0;orthogonalLoop=1;jettySize=auto;html=1;entryX=0.5;entryY=1;entryDx=0;entryDy=0;" edge="1" parent="1" source="mPvs-Qs_zoCZcgiNi18o-32" target="mPvs-Qs_zoCZcgiNi18o-31">
          <mxGeometry relative="1" as="geometry" />
        </mxCell>
        <mxCell id="mPvs-Qs_zoCZcgiNi18o-37" style="rounded=0;orthogonalLoop=1;jettySize=auto;html=1;entryX=0.5;entryY=0;entryDx=0;entryDy=0;" edge="1" parent="1" source="mPvs-Qs_zoCZcgiNi18o-32" target="mPvs-Qs_zoCZcgiNi18o-33">
          <mxGeometry relative="1" as="geometry" />
        </mxCell>
        <mxCell id="mPvs-Qs_zoCZcgiNi18o-32" value="Solicitar patrocinio (elegir dinero y tiempo)" style="rounded=0;whiteSpace=wrap;html=1;" vertex="1" parent="1">
          <mxGeometry x="200" y="267.5" width="120" height="55" as="geometry" />
        </mxCell>
        <mxCell id="mPvs-Qs_zoCZcgiNi18o-33" value="Ver tus patrocinios activos o no" style="rounded=0;whiteSpace=wrap;html=1;" vertex="1" parent="1">
          <mxGeometry x="130" y="360" width="120" height="55" as="geometry" />
        </mxCell>
        <mxCell id="mPvs-Qs_zoCZcgiNi18o-34" value="Solicitar invertir a empresa (elegir dinero)" style="rounded=0;whiteSpace=wrap;html=1;" vertex="1" parent="1">
          <mxGeometry x="870" y="240" width="130" height="40" as="geometry" />
        </mxCell>
        <mxCell id="mPvs-Qs_zoCZcgiNi18o-35" value="Solicitar invertir al juego de la empresa (elegir dinero)" style="rounded=0;whiteSpace=wrap;html=1;" vertex="1" parent="1">
          <mxGeometry x="865" y="310" width="140" height="50" as="geometry" />
        </mxCell>
      </root>
    </mxGraphModel>
  </diagram>
</mxfile>
